<svg xmlns="http://www.w3.org/2000/svg" width="12" height="6" fill="none"><path fill="#2D3440" fill-rule="evenodd" d="M1.80812.19526c-.26035-.26035-.68246-.26035-.94281 0-.26035.26035-.26035.68246 0 .94281l4.66034 4.66035a.74088.74088 0 0 0 .00624.00632c.1307.13069.30215.19578.47345.19526.16996-.0005.33977-.06559.46944-.19526a.61255.61255 0 0 0 .00621-.00629l4.66041-4.66038c.2603-.26035.2603-.68246 0-.9428-.2604-.26036-.6825-.26036-.9428 0L6.00334 4.39047 1.80812.19526Z" clip-rule="evenodd"/></svg>